Coordinates
version=1
nRows=16
nColumns=40
inDegrees=yes

Units are S.I. units (second, meters, Newtons, ...)
Angles are in degrees.

endheader
time	pelvis_tilt	pelvis_list	pelvis_rotation	pelvis_tx	pelvis_ty	pelvis_tz	hip_flexion_r	hip_adduction_r	hip_rotation_r	knee_angle_r	knee_angle_r_beta	ankle_angle_r	subtalar_angle_r	mtp_angle_r	hip_flexion_l	hip_adduction_l	hip_rotation_l	knee_angle_l	knee_angle_l_beta	ankle_angle_l	subtalar_angle_l	mtp_angle_l	lumbar_extension	lumbar_bending	lumbar_rotation	arm_flex_r	arm_add_r	arm_rot_r	elbow_flex_r	pro_sup_r	wrist_flex_r	wrist_dev_r	arm_flex_l	arm_add_l	arm_rot_l	elbow_flex_l	pro_sup_l	wrist_flex_l	wrist_dev_l
     37.52000000	     -3.32791263	     -4.88999105	     -3.91060719	      0.91914338	      0.91421181	      0.40681213	     22.40667114	     -6.91273105	     -1.94509015	     64.83605638	     64.83605638	     -1.22150812	    -12.06182928	     -3.30050129	     18.65053123	     -3.23552782	     -2.21615263	     33.82991744	     33.82991744	     20.44925144	    -17.38882429	      6.70304566	    -10.03036463	      5.70589170	      2.94228914	      7.41140383	    -11.86828241	    -13.77004966	     22.23159264	     45.49345608	      0.00000000	      0.00000000	     20.62496067	    -14.56344261	      2.12535425	     41.29627786	     45.04537889	      0.00000000	      0.00000000
     37.53735714	     -3.35344664	     -4.99395990	     -4.53185109	      0.91857129	      0.91454171	      0.40701064	     23.70875114	     -6.59289840	     -1.49170492	     65.46327377	     65.46327377	     -0.35189100	    -12.05399633	     -3.69414850	     18.14362296	     -3.41569183	     -2.61123018	     33.67443003	     33.67443003	     20.70476199	    -17.53043649	      6.78147786	    -10.01282965	      5.86423268	      2.38410074	      5.37867756	    -11.82128222	    -13.80359595	     21.39075408	     45.52451854	      0.00000000	      0.00000000	     21.21738068	    -15.28161120	      1.86753288	     41.53855774	     45.08806084	      0.00000000	      0.00000000
     37.55471429	     -3.41804279	     -5.05764722	     -5.22772610	      0.91784256	      0.91498645	      0.40740910	     25.07581715	     -6.21372048	     -0.95612263	     65.90149408	     65.90149408	      0.60839579	    -12.13262498	     -3.63366890	     17.60371995	     -3.58520102	     -3.12555627	     33.40082169	     33.40082169	     21.02552421	    -17.58099093	      7.04964868	    -10.07992069	      5.92829423	      2.60660576	      2.86046469	    -11.99563648	    -13.84322040	     20.50244931	     45.57682345	      0.00000000	      0.00000000	     22.07916028	    -15.43383953	      1.30046146	     42.49740260	     45.18823237	      0.00000000	      0.00000000
     37.57207143	     -3.44738867	     -5.14391157	     -5.89416585	      0.91715483	      0.91578658	      0.40796347	     26.26957051	     -5.77879207	     -0.51226893	     65.89484711	     65.89484711	      1.53039084	    -12.26451402	     -3.42044939	     16.92224680	     -3.77170718	     -3.65808684	     32.92871531	     32.92871531	     21.25052735	    -17.58150944	      7.27260919	    -10.17652358	      6.01697174	      2.46716356	      0.53305919	    -12.09808425	    -13.95005930	     20.03134403	     45.61184819	      0.00000000	      0.00000000	     22.74164489	    -15.85324354	      0.65446243	     43.33791401	     45.28910704	      0.00000000	      0.00000000
     37.58942857	     -3.54383855	     -5.30350154	     -6.51706881	      0.91644609	      0.91683808	      0.40867812	     27.34142378	     -5.31500438	     -0.30426632	     65.30591472	     65.30591472	      2.32917053	    -12.34746702	     -3.40918090	     16.25445645	     -4.02907359	     -4.11862845	     32.33735715	     32.33735715	     21.37414183	    -17.57410427	      7.43570810	    -10.19649795	      6.20120821	      2.05739707	     -1.49724220	    -12.20758139	    -14.05093689	     19.52325610	     45.63464770	      0.00000000	      0.00000000	     23.30276296	    -16.55748401	      0.20990938	     43.84115489	     45.35237878	      0.00000000	      0.00000000
     37.60678571	     -3.61439191	     -5.42905123	     -7.17742880	      0.91571581	      0.91824029	      0.40966829	     28.25443496	     -4.83234853	     -0.10048651	     64.18337773	     64.18337773	      3.48939693	    -12.28612444	     -2.13301884	     15.44605703	     -4.27653341	     -4.72211732	     31.53970613	     31.53970613	     21.36725638	    -17.48264150	      7.42598452	    -10.38865045	      6.31881463	      2.23401227	     -4.43633879	    -12.32202932	    -14.46691991	     21.31597949	     45.67692291	      0.00000000	      0.00000000	     23.62370397	    -16.48861707	     -2.31127483	     46.18336116	     45.71058688	      0.00000000	      0.00000000
     37.62414286	     -3.87098207	     -5.57220041	     -7.77157473	      0.91480324	      0.91962318	      0.41085256	     29.14406483	     -4.39780899	     -0.17048160	     62.35018945	     62.35018945	      4.16612842	    -12.32430190	     -2.11902737	     14.83040791	     -4.53955361	     -5.20084994	     30.67335179	     30.67335179	     21.34883990	    -17.40366325	      7.62620714	    -10.23449334	      6.45632998	      1.90125785	     -6.02942295	    -12.42917524	    -14.52097507	     20.80894599	     45.69659333	      0.00000000	      0.00000000	     24.30746370	    -17.21080227	     -2.63170147	     46.62012602	     45.75790748	      0.00000000	      0.00000000
     37.64150000	     -3.97074399	     -5.69850152	     -8.39369346	      0.91401976	      0.92162682	      0.41237003	     29.56237754	     -3.94012087	     -0.26390915	     59.70402146	     59.70402146	      4.62038892	    -12.51790998	     -2.28728016	     13.83405183	     -4.78597128	     -5.87448368	     29.42773525	     29.42773525	     21.12717780	    -17.18618946	      7.58079268	    -10.35948770	      6.49043808	      2.34652237	     -8.07745081	    -12.46902687	    -14.64547831	     20.94303513	     45.71473201	      0.00000000	      0.00000000	     25.02169998	    -17.22913394	     -3.54809058	     48.35308273	     45.89188082	      0.00000000	      0.00000000
     37.65885714	     -4.19536890	     -5.84372824	     -8.94144988	      0.91309211	      0.92345594	      0.41401745	     29.87042357	     -3.47817130	     -0.50412931	     56.42985620	     56.42985620	      5.16328680	    -12.42990797	     -2.44394166	     12.98741812	     -5.03630719	     -6.37825783	     28.17192233	     28.17192233	     20.89912719	    -16.93704987	      7.63407862	    -10.38048760	      6.67316406	      2.34087770	     -9.53922099	    -12.49175858	    -14.75462572	     21.07460195	     45.72167785	      0.00000000	      0.00000000	     25.68694989	    -17.71190854	     -4.21107046	     49.48024991	     45.98419263	      0.00000000	      0.00000000
     37.67621429	     -4.60267040	     -5.96998306	     -9.44011571	      0.91209682	      0.92498280	      0.41592880	     30.14115448	     -3.09458192	     -1.05557927	     52.56718140	     52.56718140	      5.50880364	    -12.06457540	     -2.35637616	     12.39501203	     -5.32557550	     -6.93790833	     27.00519589	     27.00519589	     20.71098093	    -16.68946558	      7.73849087	    -10.05631385	      6.73592523	      2.29569830	    -10.78066666	    -12.45435276	    -14.83264683	     21.06723885	     45.72474985	      0.00000000	      0.00000000	     26.38406059	    -18.15162103	     -4.67270857	     50.42264850	     46.04963507	      0.00000000	      0.00000000
     37.69357143	     -4.80415116	     -6.09143592	     -9.96124514	      0.91122452	      0.92657379	      0.41809832	     29.79264135	     -2.68240375	     -1.62686620	     47.86148854	     47.86148854	      4.72722272	    -11.96238000	     -5.45560389	     11.45959336	     -5.59863220	     -7.66320979	     25.60622853	     25.60622853	     19.85808033	    -16.47614557	      6.08411637	    -10.19172630	      6.75402912	      2.39076511	    -12.79542611	    -12.36859216	    -14.81633663	     24.00222310	     45.68066479	      0.00000000	      0.00000000	     26.31214533	    -18.17052722	     -7.32551272	     54.09419455	     46.40548802	      0.00000000	      0.00000000
     37.71092857	     -5.08554523	     -6.14224459	    -10.35562195	      0.91027137	      0.92781878	      0.42031694	     29.42499302	     -2.34791524	     -2.33205224	     43.04651863	     43.04651863	      4.92379877	    -10.74304335	     -5.28020625	     10.74074606	     -5.78241872	     -8.21061572	     24.41757527	     24.41757527	     19.68821476	    -16.03775534	      6.11604891	    -10.05817517	      6.71320026	      2.60422826	    -13.74294331	    -12.24477641	    -14.70589738	     24.00610460	     45.68172961	      0.00000000	      0.00000000	     27.22159982	    -18.43217060	     -7.66222887	     55.29086056	     46.47180261	      0.00000000	      0.00000000
     37.72828571	     -5.62029410	     -6.15179116	    -10.69999899	      0.90920837	      0.92827098	      0.42275669	     29.18332811	     -1.90746479	     -3.00686344	     38.05832056	     38.05832056	      4.95780664	     -9.36240897	     -4.69308656	     10.46888369	     -5.98403470	     -8.63468153	     23.51845248	     23.51845248	     19.57640549	    -15.73019843	      6.17027715	     -9.59980522	      6.68629670	      2.66399344	    -14.33161794	    -11.97759746	    -14.66737519	     24.01558589	     45.67679613	      0.00000000	      0.00000000	     28.14603649	    -18.84599337	     -7.90385891	     56.14973443	     46.51574323	      0.00000000	      0.00000000
     37.74564286	     -5.61704567	     -6.14273278	    -10.96286434	      0.90870091	      0.92900766	      0.42513906	     28.12717999	     -1.71688436	     -4.08563565	     32.93118531	     32.93118531	      5.07308833	     -6.48775142	     -4.40408196	      9.51942247	     -6.08138641	     -9.26518491	     22.50863973	     22.50863973	     19.44056106	    -15.06482603	      5.61826703	     -9.82146963	      6.54527768	      3.07299297	    -15.22832337	    -11.80794496	    -14.58565883	     24.72007583	     45.64976199	      0.00000000	      0.00000000	     28.87984166	    -18.82634709	     -8.54419208	     58.46601107	     46.62182083	      0.00000000	      0.00000000
     37.76300000	     -5.87245558	     -6.09193965	    -11.13391189	      0.90817031	      0.92881684	      0.42765337	     27.38220080	     -1.40724838	     -5.05178956	     28.14666882	     28.14666882	      5.14157516	     -3.64814906	     -3.17994693	      9.03260629	     -6.18562409	     -9.69618899	     21.77205689	     21.77205689	     19.08085646	    -14.74761056	      4.36881976	     -9.68370366	      6.44936878	      2.93701347	    -15.93764575	    -11.69260676	    -14.16187363	     26.16453877	     45.59315595	      0.00000000	      0.00000000	     29.09132247	    -19.12393453	     -9.58172244	     61.05432083	     46.78282031	      0.00000000	      0.00000000
     37.78035714	     -6.14145232	     -5.99113913	    -11.24236293	      0.90779539	      0.92825177	      0.43038196	     26.64054075	     -0.99663932	     -5.61007009	     23.67659073	     23.67659073	      4.86849368	     -1.35758980	     -2.08186387	      8.66026383	     -6.23503922	     -9.95220026	     21.23573850	     21.23573850	     19.16807994	    -14.43478142	      4.17411557	     -9.40482290	      6.30092095	      3.09349787	    -16.08702746	    -11.37871409	    -14.00639614	     26.21669500	     45.58345993	      0.00000000	      0.00000000	     30.02891034	    -19.24041525	     -9.71385643	     61.92148456	     46.81925653	      0.00000000	      0.00000000
